<svg width="22" height="22" viewBox="0 0 22 22" fill="none" xmlns="http://www.w3.org/2000/svg">
<g clip-path="url(#clip0_1_207)">
<path d="M11 22C17.0751 22 22 17.0751 22 11C22 4.92487 17.0751 0 11 0C4.92487 0 0 4.92487 0 11C0 17.0751 4.92487 22 11 22Z" fill="#2FC7F7"/>
<path d="M18.8418 10.7222H18.3691V10.2496H18.2422V10.8496H18.8418V10.7222ZM18.3062 11.666C18.1195 11.666 17.937 11.6107 17.7818 11.507C17.6266 11.4032 17.5057 11.2558 17.4342 11.0834C17.3628 10.9109 17.3441 10.7212 17.3805 10.5381C17.4169 10.355 17.5068 10.1868 17.6388 10.0548C17.7708 9.92284 17.939 9.83295 18.1221 9.79653C18.3051 9.76012 18.4949 9.77881 18.6674 9.85024C18.8398 9.92168 18.9872 10.0426 19.0909 10.1979C19.1946 10.3531 19.25 10.5355 19.25 10.7222C19.2486 10.9721 19.1488 11.2114 18.9721 11.3881C18.7954 11.5648 18.5561 11.6647 18.3062 11.666ZM18.3062 9.95092C18.1536 9.95092 18.0045 9.99615 17.8777 10.0809C17.7508 10.1657 17.652 10.2861 17.5936 10.427C17.5352 10.568 17.52 10.7231 17.5497 10.8727C17.5795 11.0223 17.6529 11.1597 17.7608 11.2676C17.8687 11.3755 18.0061 11.4489 18.1557 11.4787C18.3053 11.5084 18.4604 11.4932 18.6014 11.4348C18.7423 11.3764 18.8627 11.2775 18.9475 11.1507C19.0322 11.0239 19.0775 10.8748 19.0775 10.7222C19.0776 10.6209 19.0577 10.5206 19.0189 10.4269C18.9802 10.3333 18.9234 10.2483 18.8518 10.1766C18.7801 10.105 18.6951 10.0482 18.6015 10.0095C18.5078 9.97072 18.4075 9.95083 18.3062 9.95092ZM16.4912 11.2305V9.72404H16.1737L14.9667 11.2939V11.5934H16.0557V12.1924H16.4912V11.5934H16.8543V11.2303L16.4912 11.2305ZM16.0557 10.8767V11.2213H15.7652C15.6746 11.2213 15.5111 11.2303 15.4567 11.2303L16.0737 10.3954C16.0737 10.468 16.0557 10.6859 16.0557 10.8765V10.8767ZM13.2153 12.1834H14.9125V11.8112H13.787C13.9412 11.1942 14.885 11.058 14.885 10.3684C14.885 9.99625 14.6309 9.72383 14.1045 9.72383C13.8206 9.72612 13.5411 9.79445 13.2881 9.92342L13.4062 10.2695C13.5878 10.1879 13.7874 10.1062 14.0323 10.1062C14.2319 10.1062 14.4134 10.1879 14.4134 10.4148C14.4222 10.9218 13.3152 10.9581 13.2153 12.1834ZM11.5728 11.176L10.8468 10.1778H11.3732L11.8458 10.8311L12.3269 10.1778H12.8532L12.1172 11.176L12.8614 12.1834H12.335L11.854 11.5118L11.3639 12.1834H10.8376L11.5728 11.176ZM9.98465 9.55152C9.98465 9.4697 10.0172 9.39123 10.075 9.33337C10.1329 9.27551 10.2113 9.24301 10.2932 9.24301C10.375 9.24301 10.4535 9.27551 10.5113 9.33337C10.5692 9.39123 10.6017 9.4697 10.6017 9.55152C10.6017 9.7148 10.4655 9.85101 10.2841 9.85101C10.1028 9.85101 9.98465 9.72404 9.98465 9.55152ZM10.039 10.1776H10.5471V12.1831H10.0392L10.039 10.1776ZM8.4599 10.1776H8.89539L8.94975 10.4045C9.13129 10.2229 9.29457 10.1322 9.5034 10.1322C9.60293 10.1326 9.70037 10.1609 9.78463 10.2139L9.60352 10.6406C9.53535 10.5984 9.45678 10.5761 9.37664 10.5761C9.24043 10.5761 9.13172 10.6305 8.96844 10.7757V12.1924H8.46012L8.4599 10.1776ZM5.78295 9.55152C5.78261 9.51091 5.79035 9.47064 5.80573 9.43305C5.82112 9.39547 5.84383 9.36132 5.87255 9.3326C5.90126 9.30389 5.93541 9.28117 5.973 9.26579C6.01058 9.25041 6.05085 9.24266 6.09146 9.24301C6.26334 9.24301 6.409 9.36998 6.409 9.55152C6.409 9.7148 6.27279 9.85101 6.09146 9.85101C5.91014 9.85101 5.78295 9.72404 5.78295 9.55152ZM5.83731 10.1776H6.34541V12.1831H5.83752L5.83731 10.1776ZM7.02539 11.6933V10.5761H6.6623V10.1778H7.02539V9.71502L7.5335 9.56978V10.1778H8.14258L8.01561 10.5772H7.53457V11.5655C7.53457 11.756 7.59902 11.8196 7.73416 11.8196C7.84453 11.817 7.95174 11.7823 8.04268 11.7197L8.19693 12.0645C8.0517 12.1645 7.80678 12.2188 7.60697 12.2188C7.2441 12.2287 7.02539 12.0289 7.02539 11.6933ZM3.52344 9.38867H4.33984C4.93883 9.38867 5.21104 9.7335 5.21104 10.0966C5.21104 10.3415 5.09309 10.5594 4.87523 10.6767V10.6857C5.20201 10.7673 5.4016 11.0305 5.4016 11.3573C5.4016 11.7928 5.07482 12.1831 4.42148 12.1831H3.52344V9.38867ZM4.27668 10.5594C4.55791 10.5594 4.71217 10.4051 4.71217 10.1872C4.71217 9.97863 4.57596 9.81514 4.27668 9.81514H4.04035V10.5594H4.27668ZM4.35832 11.7663C4.69412 11.7663 4.88469 11.6394 4.88469 11.3581C4.88469 11.1218 4.70314 10.977 4.42191 10.977H4.04078V11.7666L4.35832 11.7663Z" fill="white"/>
</g>
<defs>
<clipPath id="clip0_1_207">
<rect width="22" height="22" fill="white"/>
</clipPath>
</defs>
</svg>
