<svg width="30" height="30" viewBox="0 0 30 30" fill="none" xmlns="http://www.w3.org/2000/svg">
<rect x="0.5" y="0.5" width="29" height="29" rx="14.5" fill="#CAF6CE"/>
<rect x="0.5" y="0.5" width="29" height="29" rx="14.5" stroke="#BEEAC2"/>
<path d="M22.5684 18.3515L20.7012 11.6164C20.326 10.2616 19.5083 9.07126 18.3782 8.23506C17.2481 7.39886 15.8707 6.96487 14.4653 7.00222C13.06 7.03958 11.7076 7.54612 10.6235 8.44118C9.53944 9.33623 8.78605 10.5683 8.48336 11.9412L7.03965 18.4362C6.98553 18.6799 6.98683 18.9327 7.04346 19.1758C7.1001 19.419 7.21061 19.6463 7.36686 19.841C7.5231 20.0357 7.72108 20.1928 7.94618 20.3008C8.17129 20.4087 8.41776 20.4648 8.66741 20.4647H11.4301C11.6423 21.1986 12.0873 21.8436 12.6979 22.3027C13.3085 22.7618 14.0518 23.01 14.8157 23.01C15.5796 23.01 16.3229 22.7618 16.9335 22.3027C17.5441 21.8436 17.989 21.1986 18.2012 20.4647H20.9626C21.2196 20.4647 21.4732 20.4053 21.7034 20.2912C21.9337 20.177 22.1344 20.0111 22.2899 19.8065C22.4455 19.6019 22.5516 19.3641 22.6 19.1117C22.6484 18.8593 22.6372 18.5991 22.5684 18.3515ZM9.08285 18.4642L10.4365 12.3713C10.6439 11.4351 11.1584 10.5951 11.8983 9.98517C12.6381 9.37521 13.5608 9.03027 14.5193 9.00527C15.4779 8.98027 16.4173 9.27665 17.1879 9.84722C17.9586 10.4178 18.5162 11.2298 18.7721 12.1539L20.5245 18.4642H9.08285Z" fill="#0CCA1F"/>
</svg>
