<svg width="30" height="30" viewBox="0 0 30 30" fill="none" xmlns="http://www.w3.org/2000/svg">
<rect width="30" height="30" rx="8" fill="#E1E6EC"/>
<path d="M16.1227 24.81C14.21 24.81 12.4778 24.3881 10.926 23.5444C9.39228 22.6823 8.18333 21.4992 7.29917 19.9951C6.43306 18.491 6 16.7943 6 14.905C6 13.0157 6.44208 11.319 7.32624 9.81493C8.21039 8.31084 9.41934 7.13691 10.9531 6.29315C12.5049 5.43105 14.2371 5 16.1498 5C17.7016 5 19.118 5.27514 20.3991 5.82542C21.6803 6.3757 22.7629 7.1736 23.6471 8.21913C22.3941 9.417 20.4361 9.2311 18.8332 8.597C18.0573 8.29006 17.217 8.13658 16.3122 8.13658C15.013 8.13658 13.8492 8.43007 12.8206 9.01703C11.7921 9.58565 10.9892 10.3836 10.4118 11.4107C9.83436 12.4379 9.54565 13.6027 9.54565 14.905C9.54565 16.2073 9.83436 17.3721 10.4118 18.3993C10.9892 19.4265 11.7921 20.2335 12.8206 20.8205C13.8492 21.3891 15.013 21.6734 16.3122 21.6734C16.9915 21.6734 17.6346 21.5858 18.2413 21.4107C19.9396 20.9204 22.1656 21.2493 22.8671 22.8962L23.4451 24.2533C23.5686 24.5433 23.5302 24.944 23.223 24.9928C22.4211 25.1201 21.4708 23.5192 20.3721 23.9846C19.0909 24.5349 17.6745 24.81 16.1227 24.81Z" fill="#11253E"/>
<path d="M16.0371 15.6908C16.0371 17.159 15.047 16.4988 13.8256 16.4988C12.6041 16.4988 11.614 17.159 11.614 15.6908C11.614 14.2226 12.6041 13.0324 13.8256 13.0324C15.047 13.0324 16.0371 14.2226 16.0371 15.6908Z" fill="#11253E"/>
<path d="M21.9914 15.7382C21.9914 17.2326 21.0012 16.5673 19.7798 16.5673C18.5584 16.5673 17.5682 17.2326 17.5682 15.7382C17.5682 14.2438 18.5584 13.0324 19.7798 13.0324C21.0012 13.0324 21.9914 14.2438 21.9914 15.7382Z" fill="#11253E"/>
</svg>
